<mxfile host="app.diagrams.net" modified="2024-03-08T12:00:19.141Z" agent="Mozilla/5.0 (Macintosh; Intel Mac OS X 10_15_7) AppleWebKit/537.36 (KHTML, like Gecko) Chrome/122.0.0.0 Safari/537.36" version="24.0.2" etag="tVIIy96ccmSeYc6TV2w3" type="github">
  <diagram name="Page-1" id="d5yHeFWMEli52Cl5tWn_">
    <mxGraphModel>
      <root>
        <mxCell id="0" />
        <mxCell id="1" parent="0" />
      </root>
    </mxGraphModel>
  </diagram>
</mxfile>
